<svg width="31" height="31" viewBox="0 0 31 31" fill="none" xmlns="http://www.w3.org/2000/svg">
<path d="M13.6823 6.03004L7.66234 9.96004C5.73234 11.22 5.73234 14.04 7.66234 15.3L13.6823 19.23C14.7623 19.94 16.5423 19.94 17.6223 19.23L23.6123 15.3C25.5323 14.04 25.5323 11.23 23.6123 9.97004L17.6223 6.04004C16.5423 5.32004 14.7623 5.32004 13.6823 6.03004Z" stroke="#F1F1F1" strokeWidth="1.5" strokeLinecap="round" strokeLinejoin="round"/>
<path d="M9.26391 16.58L9.25391 21.27C9.25391 22.54 10.2339 23.9 11.4339 24.3L14.6239 25.36C15.1739 25.54 16.0839 25.54 16.6439 25.36L19.8339 24.3C21.0339 23.9 22.0139 22.54 22.0139 21.27V16.63" stroke="#F1F1F1" strokeWidth="1.5" strokeLinecap="round" strokeLinejoin="round"/>
<path d="M25.0312 18.5V12.5" stroke="#F1F1F1" strokeWidth="1.5" strokeLinecap="round" strokeLinejoin="round"/>
</svg>
