<svg width="45" height="45" viewBox="0 0 45 45" fill="none" xmlns="http://www.w3.org/2000/svg">
<rect width="45" height="45" rx="22.5" fill= '#F1F1F1' className="svg-hover-gold"/>
<path d="M26.6236 12.7558L24.225 12.752C21.5303 12.752 19.7888 14.5386 19.7888 17.304V19.4028H17.3772C17.1688 19.4028 17 19.5718 17 19.7802V22.8211C17 23.0295 17.1689 23.1983 17.3772 23.1983H19.7888V30.8715C19.7888 31.0799 19.9576 31.2487 20.166 31.2487H23.3125C23.5209 31.2487 23.6897 31.0797 23.6897 30.8715V23.1983H26.5095C26.7179 23.1983 26.8866 23.0295 26.8866 22.8211L26.8878 19.7802C26.8878 19.6801 26.848 19.5843 26.7773 19.5135C26.7067 19.4427 26.6105 19.4028 26.5104 19.4028H23.6897V17.6236C23.6897 16.7685 23.8935 16.3344 25.0074 16.3344L26.6232 16.3338C26.8314 16.3338 27.0002 16.1648 27.0002 15.9566V13.133C27.0002 12.9249 26.8316 12.7562 26.6236 12.7558Z" fill="#252525"/>
</svg>
