<svg width="31" height="31" viewBox="0 0 31 31" fill="none" xmlns="http://www.w3.org/2000/svg">
<path fillRule="evenodd" clip-rule="evenodd" d="M10.8304 4.72466C10.5403 4.42904 10.0654 4.42459 9.7698 4.71472C9.47418 5.00486 9.46973 5.47971 9.75986 5.77534L12.1585 8.21938V11.2414C12.1585 11.2414 12.1585 11.2414 12.1585 11.2414H8.63309C7.43415 11.2414 6.50461 12.289 6.6473 13.4794L8.08291 25.4564C8.20342 26.4617 9.05619 27.2184 10.0687 27.2184H14.5928C14.5958 27.2184 14.5988 27.2184 14.6018 27.2184H21.6687C23.3255 27.2184 24.6687 25.8752 24.6687 24.2184V20.8985C24.6687 19.2416 23.3255 17.8985 21.6687 17.8985L18.9866 17.8985L19.5163 13.4794C19.659 12.289 18.7294 11.2414 17.5305 11.2414H13.6585C13.6585 11.2414 13.6585 11.2414 13.6585 11.2414V7.91283V7.60628L13.4438 7.38749L10.8304 4.72466ZM17.4759 17.8985L17.6653 16.3185H8.49834L9.57225 25.2779C9.60238 25.5292 9.81557 25.7184 10.0687 25.7184H12.0032C11.7479 25.2771 11.6018 24.7648 11.6018 24.2184V20.8985C11.6018 19.2416 12.945 17.8985 14.6018 17.8985L17.4759 17.8985ZM14.6777 25.7184L21.6687 25.7184C22.4971 25.7184 23.1687 25.0468 23.1687 24.2184V22.2621H19.7328L18.1353 23.8898L16.5378 22.2621H13.5156C13.3627 22.2621 13.2204 22.2163 13.1018 22.1377V24.2184C13.1018 25.0447 13.7699 25.7149 14.5954 25.7184H14.6777ZM8.31854 14.8185H17.845L18.027 13.3009C18.0626 13.0033 17.8302 12.7414 17.5305 12.7414H8.63309C8.33335 12.7414 8.10097 13.0033 8.13664 13.3009L8.31854 14.8185ZM21.6687 19.3985C22.4511 19.3985 23.0936 19.9976 23.1625 20.7621H13.5156C13.3627 20.7621 13.2205 20.8078 13.1019 20.8864C13.1083 20.0635 13.7774 19.3985 14.6018 19.3985H21.6687Z" fill="#F1F1F1"/>
</svg>
