<svg width="45" height="45" viewBox="0 0 45 45" fill="none" xmlns="http://www.w3.org/2000/svg">
<rect width="45" height="45" rx="22.5" fill="#F1F1F1"/>
<path d="M31.5007 31.4997V25.0904C31.5007 21.9404 30.8226 19.5342 27.1476 19.5342C25.3757 19.5342 24.1945 20.4967 23.7133 21.4154H23.6695V19.8186H20.1914V31.4997H23.8226V25.7029C23.8226 24.1716 24.107 22.706 25.9882 22.706C27.8476 22.706 27.8695 24.4341 27.8695 25.7904V31.4779H31.5007V31.4997Z" fill="#252525"/>
<path d="M14.2852 19.8191H17.9164V31.5003H14.2852V19.8191Z" fill="#252525"/>
<path d="M16.1 14C14.9406 14 14 14.9406 14 16.1C14 17.2594 14.9406 18.2218 16.1 18.2218C17.2594 18.2218 18.2 17.2594 18.2 16.1C18.2 14.9406 17.2594 14 16.1 14V14Z" fill="#252525"/>
</svg>
