<svg width="40" height="40" viewBox="0 0 40 40" fill="none" xmlns="http://www.w3.org/2000/svg">
<path d="M36.6166 30.5507C36.6166 31.1507 36.4833 31.7673 36.1999 32.3673C35.9166 32.9673 35.5499 33.534 35.0666 34.0673C34.2499 34.9673 33.3499 35.6173 32.3333 36.034C31.3333 36.4507 30.2499 36.6673 29.0833 36.6673C27.3833 36.6673 25.5666 36.2673 23.6499 35.4507C21.7333 34.634 19.8166 33.534 17.9166 32.1507C15.9999 30.7507 14.1833 29.2006 12.4499 27.484C10.7333 25.7507 9.18325 23.934 7.79992 22.034C6.43325 20.134 5.33325 18.234 4.53325 16.3507C3.73325 14.4507 3.33325 12.634 3.33325 10.9007C3.33325 9.76732 3.53325 8.68398 3.93325 7.68398C4.33325 6.66732 4.96659 5.73398 5.84992 4.90065C6.91659 3.85065 8.08325 3.33398 9.31659 3.33398C9.78325 3.33398 10.2499 3.43398 10.6666 3.63398C11.0999 3.83398 11.4833 4.13398 11.7833 4.56732L15.6499 10.0173C15.9499 10.434 16.1666 10.8173 16.3166 11.184C16.4666 11.534 16.5499 11.884 16.5499 12.2007C16.5499 12.6007 16.4333 13.0007 16.1999 13.384C15.9833 13.7673 15.6666 14.1673 15.2666 14.5673L13.9999 15.884C13.8166 16.0673 13.7333 16.284 13.7333 16.5507C13.7333 16.684 13.7499 16.8007 13.7833 16.934C13.8333 17.0673 13.8833 17.1673 13.9166 17.2673C14.2166 17.8173 14.7333 18.534 15.4666 19.4007C16.2166 20.2673 17.0166 21.1507 17.8833 22.034C18.7833 22.9173 19.6499 23.734 20.5333 24.484C21.3999 25.2173 22.1166 25.7173 22.6833 26.0173C22.7666 26.0506 22.8666 26.1006 22.9833 26.1506C23.1166 26.2006 23.2499 26.2173 23.3999 26.2173C23.6833 26.2173 23.8999 26.1173 24.0833 25.934L25.3499 24.684C25.7666 24.2673 26.1666 23.9507 26.5499 23.7507C26.9333 23.5173 27.3166 23.4007 27.7333 23.4007C28.0499 23.4007 28.3833 23.4673 28.7499 23.6173C29.1166 23.7673 29.4999 23.984 29.9166 24.2673L35.4333 28.184C35.8666 28.484 36.1666 28.834 36.3499 29.2506C36.5166 29.6673 36.6166 30.084 36.6166 30.5507Z" stroke="#00254A" strokeWidth="2.5" strokeMiterlimit="10"/>
</svg>
