<svg width="54" height="53" viewBox="0 0 54 53" fill="none" xmlns="http://www.w3.org/2000/svg">
<path d="M22.6247 38.5141C25.0596 40.8677 29.0084 40.8689 31.4448 38.5168C31.4458 38.5159 31.4467 38.515 31.4476 38.5141L38.1229 32.0656C38.893 31.2429 38.8268 29.9729 37.9752 29.229C37.1823 28.5364 35.9749 28.5376 35.1834 29.2318L29.1006 35.1101L29.1151 4.12845C29.115 3.01923 28.1843 2.12012 27.0361 2.12012C25.888 2.12012 24.9573 3.01923 24.9573 4.12836L24.9386 35.0718L18.8889 29.2318C18.0766 28.4476 16.7601 28.4481 15.9483 29.2329C15.1366 30.0176 15.1371 31.2894 15.9494 32.0736L22.6247 38.5141Z" fill="#292D32"/>
<path d="M49.3495 34.98C48.2274 34.98 47.3178 35.8698 47.3178 36.9674V44.9175C47.3178 46.0151 46.4082 46.905 45.2862 46.905H8.71609C7.59404 46.905 6.68446 46.0151 6.68446 44.9175V36.9675C6.68446 35.8699 5.77488 34.9801 4.65282 34.9801C3.53068 34.98 2.62109 35.8699 2.62109 36.9675V44.9175C2.62109 48.2105 5.34994 50.88 8.71609 50.88H45.2861C48.6522 50.88 51.3811 48.2105 51.3811 44.9175V36.9675C51.3811 35.8699 50.4715 34.98 49.3495 34.98Z" fill="#292D32"/>
</svg>
