<svg width="40" height="40" viewBox="0 0 40 40" fill="none" xmlns="http://www.w3.org/2000/svg">
<path d="M3.33337 3.33398H6.23339C8.03339 3.33398 9.45004 4.88398 9.30004 6.66732L7.91671 23.2673C7.68337 25.984 9.83336 28.3173 12.5667 28.3173H30.3167C32.7167 28.3173 34.8167 26.3507 35 23.9673L35.9 11.4673C36.1 8.70065 34 6.45065 31.2167 6.45065H9.70006" stroke="#00254A" strokeWidth="2.5" strokeMiterlimit="10" strokeLinecap="round" strokeLinejoin="round"/>
<path d="M27.0833 36.6667C28.234 36.6667 29.1667 35.734 29.1667 34.5833C29.1667 33.4327 28.234 32.5 27.0833 32.5C25.9327 32.5 25 33.4327 25 34.5833C25 35.734 25.9327 36.6667 27.0833 36.6667Z" stroke="#00254A" strokeWidth="2.5" strokeMiterlimit="10" strokeLinecap="round" strokeLinejoin="round"/>
<path d="M13.75 36.6667C14.9006 36.6667 15.8333 35.734 15.8333 34.5833C15.8333 33.4327 14.9006 32.5 13.75 32.5C12.5994 32.5 11.6666 33.4327 11.6666 34.5833C11.6666 35.734 12.5994 36.6667 13.75 36.6667Z" stroke="#00254A" strokeWidth="2.5" strokeMiterlimit="10" strokeLinecap="round" strokeLinejoin="round"/>
<path d="M15 13.334H35" stroke="#00254A" strokeWidth="2.5" strokeMiterlimit="10" strokeLinecap="round" strokeLinejoin="round"/>
</svg>
