<svg width="40" height="40" viewBox="0 0 40 40" fill="none" xmlns="http://www.w3.org/2000/svg">
<path d="M3.3335 3.33325H6.23351C8.03351 3.33325 9.45016 4.88325 9.30016 6.66659L7.91683 23.2666C7.6835 25.9833 9.83348 28.3166 12.5668 28.3166H30.3168C32.7168 28.3166 34.8168 26.3499 35.0002 23.9666L35.9002 11.4666C36.1002 8.69992 34.0002 6.44992 31.2168 6.44992H9.70018" stroke="#00254A" strokeWidth="2.5" strokeMiterlimit="10" strokeLinecap="round" strokeLinejoin="round"/>
<path d="M27.0833 36.6667C28.234 36.6667 29.1667 35.734 29.1667 34.5833C29.1667 33.4327 28.234 32.5 27.0833 32.5C25.9327 32.5 25 33.4327 25 34.5833C25 35.734 25.9327 36.6667 27.0833 36.6667Z" stroke="#00254A" strokeWidth="2.5" strokeMiterlimit="10" strokeLinecap="round" strokeLinejoin="round"/>
<path d="M13.7498 36.6667C14.9004 36.6667 15.8332 35.734 15.8332 34.5833C15.8332 33.4327 14.9004 32.5 13.7498 32.5C12.5992 32.5 11.6665 33.4327 11.6665 34.5833C11.6665 35.734 12.5992 36.6667 13.7498 36.6667Z" stroke="#00254A" strokeWidth="2.5" strokeMiterlimit="10" strokeLinecap="round" strokeLinejoin="round"/>
<path d="M15 13.3333H35" stroke="#00254A" strokeWidth="2.5" strokeMiterlimit="10" strokeLinecap="round" strokeLinejoin="round"/>
</svg>
