<svg width="40" height="40" viewBox="0 0 40 40" fill="none" xmlns="http://www.w3.org/2000/svg">
<path d="M16.7491 4.21551L6.71584 10.7655C3.49918 12.8655 3.49918 17.5655 6.71584 19.6655L16.7491 26.2155C18.5491 27.3988 21.5158 27.3988 23.3158 26.2155L33.2991 19.6655C36.4991 17.5655 36.4991 12.8822 33.2991 10.7822L23.3158 4.23217C21.5158 3.03217 18.5491 3.03217 16.7491 4.21551Z" stroke="#00254A" strokeWidth="2.5" strokeLinecap="round" strokeLinejoin="round"/>
<path d="M9.3819 21.8008L9.36523 29.6174C9.36523 31.7341 10.9986 34.0008 12.9986 34.6674L18.3152 36.4341C19.2318 36.7341 20.7485 36.7341 21.6818 36.4341L26.9985 34.6674C28.9985 34.0008 30.6318 31.7341 30.6318 29.6174V21.8841" stroke="#00254A" strokeWidth="2.5" strokeLinecap="round" strokeLinejoin="round"/>
<path d="M35.6674 25V15" stroke="#00254A" strokeWidth="2.5" strokeLinecap="round" strokeLinejoin="round"/>
</svg>
