<svg width="40" height="40" viewBox="0 0 40 40" fill="none" xmlns="http://www.w3.org/2000/svg">
<path d="M16.7505 4.21551L6.71719 10.7655C3.50052 12.8655 3.50052 17.5655 6.71719 19.6655L16.7505 26.2155C18.5505 27.3988 21.5171 27.3988 23.3171 26.2155L33.3005 19.6655C36.5005 17.5655 36.5005 12.8822 33.3005 10.7822L23.3171 4.23217C21.5171 3.03217 18.5505 3.03217 16.7505 4.21551Z" stroke="#00254A" strokeWidth="2.5" strokeLinecap="round" strokeLinejoin="round"/>
<path d="M9.37995 21.7998L9.36328 29.6165C9.36328 31.7331 10.9966 33.9998 12.9966 34.6665L18.3132 36.4331C19.2299 36.7331 20.7465 36.7331 21.6799 36.4331L26.9965 34.6665C28.9965 33.9998 30.6299 31.7331 30.6299 29.6165V21.8831" stroke="#00254A" strokeWidth="2.5" strokeLinecap="round" strokeLinejoin="round"/>
<path d="M35.668 25V15" stroke="#00254A" strokeWidth="2.5" strokeLinecap="round" strokeLinejoin="round"/>
</svg>
