<svg width="25" height="16" viewBox="0 0 25 16" fill="none" xmlns="http://www.w3.org/2000/svg">
<mask id="mask0_1717_13187" style="mask-type:luminance" maskUnits="userSpaceOnUse" x="0" y="0" width="25" height="16">
<rect x="0.5" width="24" height="16" fill="white"/>
</mask>
<g mask="url(#mask0_1717_13187)">
<path fillRule="evenodd" clip-rule="evenodd" d="M0.5 0V16H24.5V0H0.5Z" fill="#009933"/>
<mask id="mask1_1717_13187" style="mask-type:luminance" maskUnits="userSpaceOnUse" x="0" y="0" width="25" height="16">
<path fillRule="evenodd" clip-rule="evenodd" d="M0.5 0V16H24.5V0H0.5Z" fill="white"/>
</mask>
<g mask="url(#mask1_1717_13187)">
<g filter="url(#filter0_d_1717_13187)">
<path fillRule="evenodd" clip-rule="evenodd" d="M12.4451 2.46936L21.5965 8.13834L12.3206 13.4475L3.3567 8.02845L12.4451 2.46936Z" fill="#FFD221"/>
<path fillRule="evenodd" clip-rule="evenodd" d="M12.4451 2.46936L21.5965 8.13834L12.3206 13.4475L3.3567 8.02845L12.4451 2.46936Z" fill="url(#paint0_linear_1717_13187)"/>
</g>
<path fillRule="evenodd" clip-rule="evenodd" d="M12.5 11.4665C14.5711 11.4665 16.25 9.97409 16.25 8.13314C16.25 6.29219 14.5711 4.7998 12.5 4.7998C10.4289 4.7998 8.75 6.29219 8.75 8.13314C8.75 9.97409 10.4289 11.4665 12.5 11.4665Z" fill="#2E42A5"/>
<mask id="mask2_1717_13187" style="mask-type:luminance" maskUnits="userSpaceOnUse" x="8" y="4" width="9" height="8">
<path fillRule="evenodd" clip-rule="evenodd" d="M12.5 11.4665C14.5711 11.4665 16.25 9.97409 16.25 8.13314C16.25 6.29219 14.5711 4.7998 12.5 4.7998C10.4289 4.7998 8.75 6.29219 8.75 8.13314C8.75 9.97409 10.4289 11.4665 12.5 11.4665Z" fill="white"/>
</mask>
<g mask="url(#mask2_1717_13187)">
<path fillRule="evenodd" clip-rule="evenodd" d="M11.285 9.7135L11.1175 9.79178L11.1495 9.62597L11.0139 9.50855L11.2012 9.48435L11.285 9.3335L11.3688 9.48435L11.5561 9.50855L11.4205 9.62597L11.4525 9.79178L11.285 9.7135Z" fill="#F7FCFF"/>
<path fillRule="evenodd" clip-rule="evenodd" d="M12.785 9.7135L12.6175 9.79178L12.6495 9.62597L12.5139 9.50855L12.7012 9.48435L12.785 9.3335L12.8688 9.48435L13.0561 9.50855L12.9205 9.62597L12.9525 9.79178L12.785 9.7135Z" fill="#F7FCFF"/>
<path fillRule="evenodd" clip-rule="evenodd" d="M12.785 10.5133L12.6175 10.5916L12.6495 10.4258L12.5139 10.3083L12.7012 10.2842L12.785 10.1333L12.8688 10.2842L13.0561 10.3083L12.9205 10.4258L12.9525 10.5916L12.785 10.5133Z" fill="#F7FCFF"/>
<path fillRule="evenodd" clip-rule="evenodd" d="M12.035 7.7135L11.8675 7.79178L11.8995 7.62597L11.7639 7.50855L11.9512 7.48435L12.035 7.3335L12.1188 7.48435L12.3061 7.50855L12.1705 7.62597L12.2025 7.79178L12.035 7.7135Z" fill="#F7FCFF"/>
<path fillRule="evenodd" clip-rule="evenodd" d="M12.035 9.0465L11.8675 9.12479L11.8995 8.95898L11.7639 8.84155L11.9512 8.81736L12.035 8.6665L12.1188 8.81736L12.3061 8.84155L12.1705 8.95898L12.2025 9.12479L12.035 9.0465Z" fill="#F7FCFF"/>
<path fillRule="evenodd" clip-rule="evenodd" d="M10.9842 8.38L10.8167 8.45828L10.8487 8.29248L10.7132 8.17505L10.9005 8.15086L10.9842 8L11.068 8.15086L11.2553 8.17505L11.1197 8.29248L11.1517 8.45828L10.9842 8.38Z" fill="#F7FCFF"/>
<path fillRule="evenodd" clip-rule="evenodd" d="M9.93344 8.9132L9.76592 8.99149L9.79791 8.82568L9.66239 8.70825L9.84968 8.68406L9.93344 8.5332L10.0172 8.68406L10.2045 8.70825L10.069 8.82568L10.101 8.99149L9.93344 8.9132Z" fill="#F7FCFF"/>
<path fillRule="evenodd" clip-rule="evenodd" d="M13.3866 6.6466L13.219 6.72489L13.251 6.55908L13.1155 6.44165L13.3028 6.41746L13.3866 6.2666L13.4703 6.41746L13.6576 6.44165L13.5221 6.55908L13.5541 6.72489L13.3866 6.6466Z" fill="#F7FCFF"/>
<path d="M7.94531 7.33151L8.0581 6.00195C11.6566 6.24314 14.4967 7.29486 16.5429 9.16567L15.4674 10.0951C13.6939 8.47361 11.1985 7.54956 7.94531 7.33151Z" fill="#F7FCFF"/>
</g>
</g>
</g>
<defs>
<filter id="filter0_d_1717_13187" x="3.35547" y="2.46924" width="18.2422" height="10.9785" filterUnits="userSpaceOnUse" color-interpolation-filters="sRGB">
<feFlood flood-opacity="0" result="BackgroundImageFix"/>
<feColorMatrix in="SourceAlpha" type="matrix" values="0 0 0 0 0 0 0 0 0 0 0 0 0 0 0 0 0 0 127 0" result="hardAlpha"/>
<feOffset/>
<feColorMatrix type="matrix" values="0 0 0 0 0.0313726 0 0 0 0 0.368627 0 0 0 0 0 0 0 0 0.28 0"/>
<feBlend mode="normal" in2="BackgroundImageFix" result="effect1_dropShadow_1717_13187"/>
<feBlend mode="normal" in="SourceGraphic" in2="effect1_dropShadow_1717_13187" result="shape"/>
</filter>
<linearGradient id="paint0_linear_1717_13187" x1="24.5" y1="16" x2="24.5" y2="0" gradientUnits="userSpaceOnUse">
<stop stop-color="#FFC600"/>
<stop offset="1" stop-color="#FFDE42"/>
</linearGradient>
</defs>
</svg>
