<svg width="25" height="16" viewBox="0 0 25 16" fill="none" xmlns="http://www.w3.org/2000/svg">
<mask id="mask0_1717_4132" style="mask-type:luminance" maskUnits="userSpaceOnUse" x="0" y="0" width="25" height="16">
<rect x="0.5" width="24" height="16" fill="white"/>
</mask>
<g mask="url(#mask0_1717_4132)">
<path fillRule="evenodd" clip-rule="evenodd" d="M0.5 0H24.5V16H0.5V0Z" fill="#2E42A5"/>
<rect x="0.5" width="13.2" height="9.6" fill="#2E42A5"/>
<mask id="mask1_1717_4132" style="mask-type:luminance" maskUnits="userSpaceOnUse" x="0" y="0" width="14" height="10">
<rect x="0.5" width="13.2" height="9.6" fill="white"/>
</mask>
<g mask="url(#mask1_1717_4132)">
<path d="M-1.00391 8.66657L1.96681 9.82471L14.0667 1.25919L15.6337 -0.461832L12.4569 -0.848914L7.52168 2.84221L3.5493 5.32917L-1.00391 8.66657Z" fill="#F7FCFF"/>
<path d="M-0.597656 9.47782L0.915785 10.1499L15.0705 -0.621907H12.9455L-0.597656 9.47782Z" fill="#F50100"/>
<path d="M15.5039 8.66652L12.8674 10.1553L0.433295 1.25914L-1.13369 -0.461884L2.04306 -0.848966L6.97832 2.84216L10.9507 5.32912L15.5039 8.66652Z" fill="#F7FCFF"/>
<path d="M15.4023 9.24881L13.8889 9.9209L7.86166 5.30893L6.07471 4.79364L-1.28466 -0.456045H0.840384L8.19562 4.66904L10.1493 5.28692L15.4023 9.24881Z" fill="#F50100"/>
<mask id="path-9-outside-1_1717_4132" maskUnits="userSpaceOnUse" x="-0.5" y="-1" width="16" height="12" fill="black">
<rect fill="white" x="-0.5" y="-1" width="16" height="12"/>
<path fillRule="evenodd" clip-rule="evenodd" d="M7.7 0H6.5V4.26667H0.5V5.33333H6.5V9.6H7.7V5.33333H13.7V4.26667H7.7V0Z"/>
</mask>
<path fillRule="evenodd" clip-rule="evenodd" d="M7.7 0H6.5V4.26667H0.5V5.33333H6.5V9.6H7.7V5.33333H13.7V4.26667H7.7V0Z" fill="#F50100"/>
<path d="M6.5 0V-0.9375H5.5625V0H6.5ZM7.7 0H8.6375V-0.9375H7.7V0ZM6.5 4.26667V5.20417H7.4375V4.26667H6.5ZM0.5 4.26667V3.32917H-0.4375V4.26667H0.5ZM0.5 5.33333H-0.4375V6.27083H0.5V5.33333ZM6.5 5.33333H7.4375V4.39583H6.5V5.33333ZM6.5 9.6H5.5625V10.5375H6.5V9.6ZM7.7 9.6V10.5375H8.6375V9.6H7.7ZM7.7 5.33333V4.39583H6.7625V5.33333H7.7ZM13.7 5.33333V6.27083H14.6375V5.33333H13.7ZM13.7 4.26667H14.6375V3.32917H13.7V4.26667ZM7.7 4.26667H6.7625V5.20417H7.7V4.26667ZM6.5 0.9375H7.7V-0.9375H6.5V0.9375ZM7.4375 4.26667V0H5.5625V4.26667H7.4375ZM0.5 5.20417H6.5V3.32917H0.5V5.20417ZM1.4375 5.33333V4.26667H-0.4375V5.33333H1.4375ZM6.5 4.39583H0.5V6.27083H6.5V4.39583ZM7.4375 9.6V5.33333H5.5625V9.6H7.4375ZM7.7 8.6625H6.5V10.5375H7.7V8.6625ZM6.7625 5.33333V9.6H8.6375V5.33333H6.7625ZM13.7 4.39583H7.7V6.27083H13.7V4.39583ZM12.7625 4.26667V5.33333H14.6375V4.26667H12.7625ZM7.7 5.20417H13.7V3.32917H7.7V5.20417ZM6.7625 0V4.26667H8.6375V0H6.7625Z" fill="#F7FCFF" mask="url(#path-9-outside-1_1717_4132)"/>
</g>
</g>
<g clip-path="url(#clip0_1717_4132)">
<path d="M8.22203 12.3453L7.40199 13.1031L7.4832 11.9895L6.37942 11.8208L7.30072 11.19L6.74437 10.2219L7.81201 10.5488L8.22203 9.51025L8.63205 10.5488L9.69969 10.2219L9.14334 11.19L10.0646 11.8208L8.96086 11.9895L9.04207 13.1031L8.22203 12.3453Z" fill="#F7FCFF"/>
<path d="M15.5412 8.36363L14.9946 8.86885L15.0487 8.12643L14.3128 8.01401L14.927 7.59344L14.5561 6.94804L15.2679 7.16602L15.5412 6.47363L15.8146 7.16602L16.5264 6.94804L16.1555 7.59344L16.7697 8.01401L16.0338 8.12643L16.0879 8.86885L15.5412 8.36363Z" fill="#F7FCFF"/>
<path d="M16.8225 3.03014L16.2758 3.53536L16.3299 2.79294L15.5941 2.68051L16.2083 2.25995L15.8374 1.61454L16.5492 1.83253L16.8225 1.14014L17.0958 1.83253L17.8076 1.61454L17.4367 2.25995L18.0509 2.68051L17.3151 2.79294L17.3692 3.53536L16.8225 3.03014Z" fill="#F7FCFF"/>
<path d="M20.0217 5.69713L19.475 6.20235L19.5292 5.45993L18.7933 5.34751L19.4075 4.92694L19.0366 4.28153L19.7484 4.49952L20.0217 3.80713L20.2951 4.49952L21.0068 4.28153L20.6359 4.92694L21.2501 5.34751L20.5143 5.45993L20.5684 6.20235L20.0217 5.69713Z" fill="#F7FCFF"/>
<path d="M17.4592 13.3636L16.9125 13.8689L16.9667 13.1264L16.2308 13.014L16.845 12.5934L16.4741 11.948L17.1859 12.166L17.4592 11.4736L17.7326 12.166L18.4443 11.948L18.0734 12.5934L18.6876 13.014L17.9518 13.1264L18.0059 13.8689L17.4592 13.3636Z" fill="#F7FCFF"/>
<path d="M19.6989 9.20607L19.1434 9.4981L19.2495 8.87958L18.8002 8.44155L19.4212 8.35131L19.6989 7.78857L19.9766 8.35131L20.5977 8.44155L20.1483 8.87958L20.2544 9.4981L19.6989 9.20607Z" fill="#F7FCFF"/>
</g>
<defs>
<clipPath id="clip0_1717_4132">
<rect width="18" height="13.8667" fill="white" transform="translate(5.30078 1.06689)"/>
</clipPath>
</defs>
</svg>
