<svg width="40" height="40" viewBox="0 0 40 40" fill="none" xmlns="http://www.w3.org/2000/svg">
<path fillRule="evenodd" clip-rule="evenodd" d="M11.9577 2.02744C11.4664 1.54243 10.675 1.54753 10.19 2.03882C9.70498 2.53011 9.71008 3.32154 10.2014 3.80654L14.1787 7.73296V12.5708H8.33381C6.33048 12.5708 4.7797 14.3253 5.02571 16.3134L7.38785 35.404C7.59446 37.074 9.01328 38.328 10.6959 38.328H18.0272C18.1023 38.3313 18.178 38.333 18.254 38.333H29.9997C32.761 38.333 34.9997 36.0945 34.9997 33.333V28.308C34.9997 25.5467 32.761 23.308 29.9997 23.308H18.254C15.4926 23.308 13.254 25.5467 13.254 28.308V33.333C13.254 34.2417 13.4964 35.0937 13.92 35.828H10.6959C10.2753 35.828 9.92058 35.5145 9.86893 35.097L8.10016 20.802H23.3343L23.0248 23.3032H25.5438L26.4087 16.3134C26.6547 14.3253 25.104 12.5708 23.1007 12.5708H16.6787V7.21046V6.68797L16.3068 6.32091L11.9577 2.02744ZM23.6437 18.302L23.9277 16.0064C23.9892 15.5094 23.6015 15.0708 23.1007 15.0708H8.33381C7.83298 15.0708 7.44528 15.5094 7.50678 16.0064L7.79083 18.302H23.6437ZM18.3745 35.833V35.828H18.0938C16.7877 35.7453 15.754 34.66 15.754 33.333V30.1785C15.9511 30.3085 16.1872 30.384 16.4409 30.384H21.511L24.1265 32.966L26.742 30.384H32.4997V33.333C32.4997 34.7138 31.3803 35.833 29.9997 35.833H18.3745ZM29.9997 25.808C31.2358 25.808 32.2625 26.7052 32.4638 27.884H16.4409C16.1914 27.884 15.9591 27.957 15.764 28.083C15.8778 26.8077 16.9492 25.808 18.254 25.808H29.9997Z" fill="#00254A"/>
</svg>
