<svg width="40" height="40" viewBox="0 0 40 40" fill="none" xmlns="http://www.w3.org/2000/svg">
<path fillRule="evenodd" clip-rule="evenodd" d="M11.9577 2.02646C11.4664 1.54146 10.675 1.54655 10.19 2.03785C9.70498 2.52913 9.71008 3.32056 10.2014 3.80556L14.1787 7.73198V12.5698H8.33381C6.33048 12.5698 4.7797 14.3243 5.02571 16.3124L7.38785 35.403C7.59446 37.073 9.01328 38.327 10.6959 38.327H18.0272C18.1023 38.3303 18.178 38.332 18.254 38.332H29.9997C32.761 38.332 34.9997 36.0935 34.9997 33.332V28.307C34.9997 25.5457 32.761 23.307 29.9997 23.307H18.254C15.4926 23.307 13.254 25.5457 13.254 28.307V33.332C13.254 34.2407 13.4964 35.0927 13.92 35.827H10.6959C10.2753 35.827 9.92058 35.5135 9.86893 35.096L8.10016 20.801H23.3343L23.0248 23.3022H25.5438L26.4087 16.3124C26.6547 14.3243 25.104 12.5698 23.1007 12.5698H16.6787V7.20948V6.687L16.3068 6.31993L11.9577 2.02646ZM23.6437 18.301L23.9277 16.0055C23.9892 15.5084 23.6015 15.0698 23.1007 15.0698H8.33381C7.83298 15.0698 7.44528 15.5084 7.50678 16.0055L7.79083 18.301H23.6437ZM18.3745 35.832V35.827H18.0938C16.7877 35.7443 15.754 34.659 15.754 33.332V30.1775C15.9511 30.3075 16.1872 30.383 16.4409 30.383H21.511L24.1265 32.965L26.742 30.383H32.4997V33.332C32.4997 34.7128 31.3803 35.832 29.9997 35.832H18.3745ZM29.9997 25.807C31.2358 25.807 32.2625 26.7042 32.4638 27.883H16.4409C16.1914 27.883 15.9591 27.956 15.764 28.082C15.8778 26.8067 16.9492 25.807 18.254 25.807H29.9997Z" fill="#00254A"/>
</svg>
