<svg width="14" height="15" viewBox="0 0 14 15" fill="none" xmlns="http://www.w3.org/2000/svg">
<path d="M5.03125 2.5H8.96875V1.40625C8.96875 1.05078 9.24219 0.75 9.625 0.75C9.98047 0.75 10.2812 1.05078 10.2812 1.40625V2.5H11.375C12.332 2.5 13.125 3.29297 13.125 4.25V13C13.125 13.9844 12.332 14.75 11.375 14.75H2.625C1.64062 14.75 0.875 13.9844 0.875 13V4.25C0.875 3.29297 1.64062 2.5 2.625 2.5H3.71875V1.40625C3.71875 1.05078 3.99219 0.75 4.375 0.75C4.73047 0.75 5.03125 1.05078 5.03125 1.40625V2.5ZM2.1875 13C2.1875 13.2461 2.37891 13.4375 2.625 13.4375H11.375C11.5938 13.4375 11.8125 13.2461 11.8125 13V6H2.1875V13Z" fill="#3E3232" fill-opacity="0.5"/>
</svg>
