<svg width="40" height="40" viewBox="0 0 40 40" fill="none" xmlns="http://www.w3.org/2000/svg">
<path d="M36.6667 25.0007V15.0007C36.6667 6.66732 33.3334 3.33398 25 3.33398H15C6.66671 3.33398 3.33337 6.66732 3.33337 15.0007V25.0007C3.33337 33.334 6.66671 36.6673 15 36.6673H25C33.3334 36.6673 36.6667 33.334 36.6667 25.0007Z" stroke="#00254A" strokeWidth="2.5" strokeLinecap="round" strokeLinejoin="round"/>
<path d="M4.19922 11.8496H35.7992" stroke="#00254A" strokeWidth="2.5" strokeLinecap="round" strokeLinejoin="round"/>
<path d="M14.1992 3.51562V11.6156" stroke="#00254A" strokeWidth="2.5" strokeLinecap="round" strokeLinejoin="round"/>
<path d="M25.8008 3.51562V10.8656" stroke="#00254A" strokeWidth="2.5" strokeLinecap="round" strokeLinejoin="round"/>
<path d="M16.25 24.0842V22.0842C16.25 19.5175 18.0667 18.4675 20.2833 19.7508L22.0167 20.7508L23.75 21.7508C25.9667 23.0342 25.9667 25.1342 23.75 26.4175L22.0167 27.4175L20.2833 28.4175C18.0667 29.7008 16.25 28.6508 16.25 26.0842V24.0842Z" stroke="#00254A" strokeWidth="2.5" strokeMiterlimit="10" strokeLinecap="round" strokeLinejoin="round"/>
</svg>
