<svg width="40" height="40" viewBox="0 0 40 40" fill="none" xmlns="http://www.w3.org/2000/svg">
<path d="M36.6663 24.9999V14.9999C36.6663 6.66659 33.333 3.33325 24.9997 3.33325H14.9997C6.66634 3.33325 3.33301 6.66659 3.33301 14.9999V24.9999C3.33301 33.3333 6.66634 36.6666 14.9997 36.6666H24.9997C33.333 36.6666 36.6663 33.3333 36.6663 24.9999Z" stroke="#00254A" strokeWidth="2.5" strokeLinecap="round" strokeLinejoin="round"/>
<path d="M4.19922 11.8489H35.7992" stroke="#00254A" strokeWidth="2.5" strokeLinecap="round" strokeLinejoin="round"/>
<path d="M14.1992 3.51562V11.6156" stroke="#00254A" strokeWidth="2.5" strokeLinecap="round" strokeLinejoin="round"/>
<path d="M25.8008 3.51562V10.8656" stroke="#00254A" strokeWidth="2.5" strokeLinecap="round" strokeLinejoin="round"/>
<path d="M16.25 24.0834V22.0834C16.25 19.5168 18.0667 18.4668 20.2833 19.7501L22.0167 20.7501L23.75 21.7501C25.9667 23.0334 25.9667 25.1334 23.75 26.4168L22.0167 27.4168L20.2833 28.4168C18.0667 29.7001 16.25 28.6501 16.25 26.0834V24.0834Z" stroke="#00254A" strokeWidth="2.5" strokeMiterlimit="10" strokeLinecap="round" strokeLinejoin="round"/>
</svg>
