<svg width="40" height="40" viewBox="0 0 40 40" fill="none" xmlns="http://www.w3.org/2000/svg">
<path d="M25.6971 15.5063L25.1087 17.6771H14.1133L14.7099 15.5063H25.6971ZM20.1704 28.333L14.3701 21.3561L14.3619 19.5166H17.2287C17.9137 19.5166 18.4856 19.4035 18.9441 19.177C19.4081 18.945 19.7587 18.6218 19.9964 18.2075C20.2394 17.7876 20.3609 17.296 20.3609 16.7326C20.3609 15.8874 20.1124 15.208 19.6152 14.6942C19.1181 14.1805 18.3226 13.9236 17.2287 13.9236H14.1133L14.7596 11.3633H17.2287C18.6209 11.3633 19.7726 11.5787 20.6841 12.0096C21.6011 12.4349 22.2861 13.037 22.7391 13.8159C23.1976 14.5948 23.4267 15.5063 23.4267 16.5503C23.4267 17.4728 23.2582 18.2958 22.9212 19.0195C22.5844 19.7431 22.0541 20.337 21.3304 20.801C20.6067 21.265 19.6594 21.5743 18.4882 21.729L18.3889 21.7621L23.6256 28.1838V28.333H20.1704ZM25.7137 11.3633L25.1087 13.5673L16.1931 13.5342L16.7979 11.3633H25.7137Z" fill="#00254A"/>
<path d="M36.6654 19.9997C36.6654 29.1997 29.1987 36.6663 19.9987 36.6663C10.7987 36.6663 3.33203 29.1997 3.33203 19.9997C3.33203 10.7997 10.7987 3.33301 19.9987 3.33301" stroke="#00254A" strokeWidth="2.5" strokeLinecap="round" strokeLinejoin="round"/>
</svg>
