<svg width="40" height="40" viewBox="0 0 40 40" fill="none" xmlns="http://www.w3.org/2000/svg">
<path d="M25.696 15.5063L25.1076 17.6771H14.1122L14.7088 15.5063H25.696ZM20.1693 28.333L14.3691 21.3561L14.3608 19.5166H17.2276C17.9126 19.5166 18.4845 19.4035 18.943 19.177C19.407 18.945 19.7576 18.6218 19.9953 18.2075C20.2383 17.7876 20.3598 17.296 20.3598 16.7326C20.3598 15.8874 20.1113 15.208 19.6141 14.6942C19.117 14.1805 18.3215 13.9236 17.2276 13.9236H14.1122L14.7585 11.3633H17.2276C18.6198 11.3633 19.7715 11.5787 20.683 12.0096C21.6 12.4349 22.285 13.037 22.738 13.8159C23.1965 14.5948 23.4256 15.5063 23.4256 16.5503C23.4256 17.4728 23.2571 18.2958 22.9201 19.0195C22.5833 19.7431 22.053 20.337 21.3293 20.801C20.6056 21.265 19.6583 21.5743 18.4871 21.729L18.3878 21.7621L23.6245 28.1838V28.333H20.1693ZM25.7126 11.3633L25.1076 13.5673L16.192 13.5342L16.7968 11.3633H25.7126Z" fill="#00254A"/>
<path d="M36.6667 20.0007C36.6667 29.2007 29.2 36.6673 20 36.6673C10.8 36.6673 3.33337 29.2007 3.33337 20.0007C3.33337 10.8007 10.8 3.33398 20 3.33398" stroke="#00254A" strokeWidth="2.5" strokeLinecap="round" strokeLinejoin="round"/>
</svg>
