<svg width="40" height="40" viewBox="0 0 40 40" fill="none" xmlns="http://www.w3.org/2000/svg">
<path d="M3.85041 15.0501L7.11707 18.9333C7.61707 19.5167 7.61707 20.4833 7.11707 21.0667L3.85041 24.95C3.40041 25.85 3.85041 26.95 4.81707 27.2833L7.03374 28.0167C7.56708 28.2 8.35041 28.0167 8.75041 27.6167L12.5504 23.8333C12.8171 23.55 13.3504 23.3333 13.7337 23.3333H18.4837C19.1837 23.3333 19.517 23.85 19.2504 24.5L15.7171 32.6833C15.1671 33.9667 15.8504 35.0167 17.2504 35.0167H19.4004C20.517 35.0167 21.8004 34.1833 22.2337 33.15L26.2504 23.8333C26.367 23.5667 26.717 23.3333 27.017 23.3333H32.017C33.5837 23.3333 35.4337 22.1833 36.1504 20.7833C36.4004 20.2833 36.4004 19.7 36.1504 19.2C35.4337 17.8 33.567 16.6501 32.0004 16.6501H27.0004C26.7004 16.6501 26.3504 16.4167 26.2337 16.1501L22.217 6.85006C21.8004 5.81673 20.517 4.9834 19.4004 4.9834H17.2504C15.8504 4.9834 15.1671 6.0334 15.7171 7.31673L19.2504 15.5001C19.5337 16.1334 19.1837 16.6667 18.4837 16.6667H13.7337C13.3504 16.6667 12.8171 16.4501 12.5504 16.1834L8.75041 12.4001C8.35041 12.0001 7.58374 11.8167 7.03374 12.0001L4.81707 12.7334C3.85041 13.0334 3.38374 14.1334 3.85041 15.0501Z" stroke="#00254A" strokeWidth="2.5" strokeLinecap="round" strokeLinejoin="round"/>
</svg>
