<svg width="40" height="40" viewBox="0 0 40 40" fill="none" xmlns="http://www.w3.org/2000/svg">
<path d="M3.85041 15.051L7.11707 18.9343C7.61707 19.5177 7.61707 20.4843 7.11707 21.0677L3.85041 24.951C3.40041 25.851 3.85041 26.951 4.81707 27.2843L7.03374 28.0177C7.56708 28.201 8.35041 28.0177 8.75041 27.6177L12.5504 23.8343C12.8171 23.551 13.3504 23.3343 13.7337 23.3343H18.4837C19.1837 23.3343 19.517 23.851 19.2504 24.501L15.7171 32.6843C15.1671 33.9677 15.8504 35.0177 17.2504 35.0177H19.4004C20.517 35.0177 21.8004 34.1843 22.2337 33.151L26.2504 23.8343C26.367 23.5677 26.717 23.3343 27.017 23.3343H32.017C33.5837 23.3343 35.4337 22.1843 36.1504 20.7843C36.4004 20.2843 36.4004 19.701 36.1504 19.201C35.4337 17.801 33.567 16.651 32.0004 16.651H27.0004C26.7004 16.651 26.3504 16.4177 26.2337 16.151L22.217 6.85104C21.8004 5.81771 20.517 4.98438 19.4004 4.98438H17.2504C15.8504 4.98438 15.1671 6.03438 15.7171 7.31771L19.2504 15.501C19.5337 16.1344 19.1837 16.6677 18.4837 16.6677H13.7337C13.3504 16.6677 12.8171 16.451 12.5504 16.1844L8.75041 12.401C8.35041 12.001 7.58374 11.8177 7.03374 12.001L4.81707 12.7344C3.85041 13.0344 3.38374 14.1344 3.85041 15.051Z" stroke="#00254A" strokeWidth="2.5" strokeLinecap="round" strokeLinejoin="round"/>
</svg>
