<svg width="54" height="53" viewBox="0 0 54 53" fill="none" xmlns="http://www.w3.org/2000/svg">
<path fillRule="evenodd" clip-rule="evenodd" d="M18.2064 15.4587C18.2064 10.6032 22.1426 6.66699 26.9981 6.66699C31.8536 6.66699 35.7897 10.6032 35.7897 15.4587C35.7897 20.3142 31.8536 24.2503 26.9981 24.2503C22.1426 24.2503 18.2064 20.3142 18.2064 15.4587ZM26.9981 2.16699C19.6573 2.16699 13.7064 8.11787 13.7064 15.4587C13.7064 22.7994 19.6573 28.7503 26.9981 28.7503C34.3389 28.7503 40.2897 22.7994 40.2897 15.4587C40.2897 8.11787 34.3389 2.16699 26.9981 2.16699ZM27.0008 30.8752C15.7447 30.8752 5.78125 38.3848 5.78125 48.5836C5.78125 49.8262 6.78861 50.8336 8.03125 50.8336C9.27389 50.8336 10.2812 49.8262 10.2812 48.5836C10.2812 41.6899 17.3219 35.3752 27.0008 35.3752C36.6797 35.3752 43.7204 41.6899 43.7204 48.5836C43.7204 49.8262 44.7278 50.8336 45.9704 50.8336C47.213 50.8336 48.2204 49.8262 48.2204 48.5836C48.2204 38.3848 38.257 30.8752 27.0008 30.8752Z" fill="#292D32"/>
</svg>
