<svg width="148" height="26" viewBox="0 0 148 26" fill="none" xmlns="http://www.w3.org/2000/svg">
<g clip-path="url(#clip0_739_11032)">
<path d="M17.7721 13.0609C19.4893 11.8126 20.6064 9.78292 20.6064 7.49398C20.6064 3.95668 17.9421 1.04445 14.5165 0.664444C14.2669 0.636032 14.012 0.621826 13.7553 0.621826H0V5.52289H12.3036C13.7022 5.52289 14.8352 6.65936 14.8352 8.0622C14.8352 9.46505 13.7022 10.6015 12.3036 10.6015H0V15.5026H12.3036C13.7022 15.5026 14.8352 16.6391 14.8352 18.0419C14.8352 19.4448 13.7022 20.5812 12.3036 20.5812L7.45831 20.599H0V25.5H13.7553C14.012 25.5 14.2669 25.4859 14.5165 25.4574C17.9421 25.0774 20.6064 22.1652 20.6064 18.6279C20.6064 15.0906 19.4893 14.3093 17.7721 13.0609Z" fill="#FFCC01"/>
<path d="M44.0524 15.2007C44.0524 20.8884 39.4903 25.5 33.82 25.5C28.1499 25.5 23.6055 20.8884 23.6055 15.2007V0.621826H28.4915C28.4915 0.621826 28.4915 15.943 28.4915 15.9465C28.6721 18.5942 31.1009 20.599 33.82 20.599C36.5394 20.599 39.0124 18.5249 39.1665 15.824C39.3717 12.221 39.1665 0.621826 39.1665 0.621826H44.0524V15.2007Z" fill="#FFCC01"/>
<path d="M69.2015 15.0427V25.5H74.0874V8.13323C74.0874 8.10662 74.0874 8.07998 74.0874 8.05333C74.0874 3.94958 70.77 0.621826 66.6788 0.621826C62.5875 0.621826 61.9078 1.89859 60.571 3.84481C59.2347 1.89859 56.9987 0.621826 54.4637 0.621826C50.4433 0.621826 47.1716 3.83415 47.0584 7.83847C47.0567 7.9095 47.0547 7.98053 47.0547 8.05333V25.5H51.9409V15.0427L51.9498 8.24868C51.9498 6.54751 53.3271 5.16775 55.0265 5.16775C56.7259 5.16775 58.1032 6.54751 58.1032 8.24868L58.1298 14.5135V25.5H63.016V14.5135L63.0426 8.24868C63.0426 6.54751 64.4199 5.16775 66.1193 5.16775C67.8188 5.16775 69.1961 6.54751 69.1961 8.24868L69.2049 15.0427H69.2015Z" fill="#FFCC01"/>
<path d="M99.1792 8.05333C99.1792 8.94121 99.0234 9.79357 98.7384 10.5838C98.7367 10.5891 98.735 10.5962 98.7316 10.6015C97.6942 13.4498 94.9697 15.4848 91.7706 15.4848H84.3708V10.5838H91.399C92.792 10.5838 93.9217 9.45083 93.9217 8.05333C93.9217 6.65583 92.792 5.52289 91.399 5.52289H81.9718V25.5H77.0859V0.621826H91.6025C91.6591 0.621826 91.714 0.621826 91.7706 0.621826C95.8619 0.621826 99.1792 3.94958 99.1792 8.05333Z" fill="#FFCC01"/>
<path d="M124.273 8.05333C124.273 8.94121 124.118 9.79357 123.833 10.5838C123.831 10.5891 123.829 10.5962 123.825 10.6015C122.788 13.4498 120.063 15.4848 116.865 15.4848H109.465V10.5838H116.493C117.886 10.5838 119.015 9.45083 119.015 8.05333C119.015 6.65583 117.886 5.52289 116.493 5.52289H107.066V25.5H102.18V0.621826H116.696C116.753 0.621826 116.808 0.621826 116.865 0.621826C120.956 0.621826 124.273 3.94958 124.273 8.05333Z" fill="#FFCC01"/>
<path d="M147.633 6.43741C147.633 11.2568 144.357 15.2984 139.891 16.3976V25.5H135.005V16.3976C130.538 15.2984 127.273 11.2568 127.273 6.43741V0.621826H132.16V6.92573C132.156 6.97189 132.161 7.01984 132.16 7.06779C132.156 7.15303 132.16 7.23826 132.16 7.32529C132.16 9.37803 133.305 11.1609 135.005 12.047C135.736 12.4288 136.566 12.6436 137.448 12.6436C138.329 12.6436 139.16 12.4288 139.891 12.047C141.59 11.1609 142.746 9.37981 142.746 7.32529H142.75C142.75 7.26491 142.75 7.20631 142.746 7.14772V0.621826H147.633V6.43741Z" fill="#FFCC01"/>
</g>
<defs>
<clipPath id="clip0_739_11032">
<rect width="147.632" height="24.8782" fill="white" transform="translate(0 0.621826)"/>
</clipPath>
</defs>
</svg>
