<svg width="30" height="30" viewBox="0 0 30 30" fill="none" xmlns="http://www.w3.org/2000/svg">
<path d="M5 6H6.74001C7.82001 6 8.67 6.93 8.58 8L7.75 17.96C7.61 19.59 8.89999 20.99 10.54 20.99H21.19C22.63 20.99 23.89 19.81 24 18.38L24.54 10.88C24.66 9.22 23.4 7.87 21.73 7.87H8.82001" stroke="#14183E" stroke-width="1.5" stroke-miterlimit="10" stroke-linecap="round" stroke-linejoin="round"/>
<path d="M19.25 26C19.9404 26 20.5 25.4404 20.5 24.75C20.5 24.0596 19.9404 23.5 19.25 23.5C18.5596 23.5 18 24.0596 18 24.75C18 25.4404 18.5596 26 19.25 26Z" stroke="#14183E" stroke-width="1.5" stroke-miterlimit="10" stroke-linecap="round" stroke-linejoin="round"/>
<path d="M11.25 26C11.9404 26 12.5 25.4404 12.5 24.75C12.5 24.0596 11.9404 23.5 11.25 23.5C10.5596 23.5 10 24.0596 10 24.75C10 25.4404 10.5596 26 11.25 26Z" stroke="#14183E" stroke-width="1.5" stroke-miterlimit="10" stroke-linecap="round" stroke-linejoin="round"/>
<path d="M12 12H24" stroke="#14183E" stroke-width="1.5" stroke-miterlimit="10" stroke-linecap="round" stroke-linejoin="round"/>
</svg>
