<svg width="30" height="30" viewBox="0 0 30 30" fill="none" xmlns="http://www.w3.org/2000/svg">
<path d="M13.05 5.53001L7.03002 9.46001C5.10002 10.72 5.10002 13.54 7.03002 14.8L13.05 18.73C14.13 19.44 15.91 19.44 16.99 18.73L22.98 14.8C24.9 13.54 24.9 10.73 22.98 9.47001L16.99 5.54001C15.91 4.82001 14.13 4.82001 13.05 5.53001Z" stroke="#14183E" stroke-width="1.5" stroke-linecap="round" stroke-linejoin="round"/>
<path d="M8.63012 16.08L8.62012 20.77C8.62012 22.04 9.60012 23.4 10.8001 23.8L13.9901 24.86C14.5401 25.04 15.4501 25.04 16.0101 24.86L19.2001 23.8C20.4001 23.4 21.3801 22.04 21.3801 20.77V16.13" stroke="#14183E" stroke-width="1.5" stroke-linecap="round" stroke-linejoin="round"/>
<path d="M24.3999 18V12" stroke="#14183E" stroke-width="1.5" stroke-linecap="round" stroke-linejoin="round"/>
</svg>
