<svg width="30" height="30" viewBox="0 0 30 30" fill="none" xmlns="http://www.w3.org/2000/svg">
<path fill-rule="evenodd" clip-rule="evenodd" d="M10.1976 3.72466C9.90747 3.42904 9.43262 3.42459 9.13699 3.71472C8.84137 4.00486 8.83692 4.47971 9.12705 4.77534L11.5257 7.21938V10.2414C11.5257 10.2414 11.5257 10.2414 11.5257 10.2414H8.00027C6.80133 10.2414 5.8718 11.289 6.01449 12.4794L7.4501 24.4564C7.5706 25.4617 8.42338 26.2184 9.43589 26.2184H13.96C13.963 26.2184 13.966 26.2184 13.969 26.2184H21.0358C22.6927 26.2184 24.0358 24.8752 24.0358 23.2184V19.8985C24.0358 18.2416 22.6927 16.8985 21.0358 16.8985L18.3538 16.8985L18.8835 12.4794C19.0262 11.289 18.0966 10.2414 16.8977 10.2414H13.0257C13.0257 10.2414 13.0257 10.2414 13.0257 10.2414V6.91283V6.60628L12.811 6.38749L10.1976 3.72466ZM16.8431 16.8985L17.0324 15.3185H7.86553L8.93944 24.2779C8.96957 24.5292 9.18276 24.7184 9.43589 24.7184H11.3703C11.1151 24.2771 10.969 23.7648 10.969 23.2184V19.8985C10.969 18.2416 12.3122 16.8985 13.969 16.8985L16.8431 16.8985ZM14.0449 24.7184L21.0358 24.7184C21.8643 24.7184 22.5358 24.0468 22.5358 23.2184V21.2621H19.0999L17.5025 22.8898L15.905 21.2621H12.8828C12.7298 21.2621 12.5876 21.2163 12.469 21.1377V23.2184C12.469 24.0447 13.1371 24.7149 13.9626 24.7184H14.0449ZM7.68573 13.8185H17.2122L17.3941 12.3009C17.4298 12.0033 17.1974 11.7414 16.8977 11.7414H8.00027C7.70054 11.7414 7.46815 12.0033 7.50383 12.3009L7.68573 13.8185ZM21.0358 18.3985C21.8183 18.3985 22.4608 18.9976 22.5297 19.7621H12.8828C12.7299 19.7621 12.5876 19.8078 12.4691 19.8864C12.4755 19.0635 13.1446 18.3985 13.969 18.3985H21.0358Z" fill="#14183E"/>
</svg>
