<svg width="30" height="30" viewBox="0 0 30 30" fill="none" xmlns="http://www.w3.org/2000/svg">
<path d="M25 18V12C25 7 23 5 18 5H12C7 5 5 7 5 12V18C5 23 7 25 12 25H18C23 25 25 23 25 18Z" stroke="#14183E" stroke-width="1.5" stroke-linecap="round" stroke-linejoin="round"/>
<path d="M5.52002 10.11H24.48" stroke="#14183E" stroke-width="1.5" stroke-linecap="round" stroke-linejoin="round"/>
<path d="M11.52 5.11V9.97" stroke="#14183E" stroke-width="1.5" stroke-linecap="round" stroke-linejoin="round"/>
<path d="M18.48 5.11V9.52" stroke="#14183E" stroke-width="1.5" stroke-linecap="round" stroke-linejoin="round"/>
<path d="M12.75 17.45V16.25C12.75 14.71 13.84 14.08 15.17 14.85L16.21 15.45L17.25 16.05C18.58 16.82 18.58 18.08 17.25 18.85L16.21 19.45L15.17 20.05C13.84 20.82 12.75 20.19 12.75 18.65V17.45V17.45Z" stroke="#14183E" stroke-width="1.5" stroke-miterlimit="10" stroke-linecap="round" stroke-linejoin="round"/>
</svg>
