<svg width="30" height="30" viewBox="0 0 30 30" fill="none" xmlns="http://www.w3.org/2000/svg">
<circle cx="15" cy="15" r="15" fill="none"/>
<path d="M18.4176 12.304L18.0646 13.6065H11.4673L11.8253 12.304H18.4176ZM15.1016 20L11.6214 15.8139L11.6165 14.7102H13.3366C13.7476 14.7102 14.0907 14.6423 14.3658 14.5064C14.6442 14.3672 14.8546 14.1733 14.9972 13.9247C15.143 13.6728 15.2159 13.3778 15.2159 13.0398C15.2159 12.5327 15.0668 12.125 14.7685 11.8168C14.4702 11.5085 13.9929 11.3544 13.3366 11.3544H11.4673L11.8551 9.81818H13.3366C14.1719 9.81818 14.8629 9.94744 15.4098 10.206C15.96 10.4612 16.371 10.8224 16.6428 11.2898C16.9179 11.7571 17.0554 12.304 17.0554 12.9304C17.0554 13.4839 16.9543 13.9777 16.7521 14.4119C16.55 14.8461 16.2318 15.2024 15.7976 15.4808C15.3634 15.7592 14.795 15.9448 14.0923 16.0376L14.0327 16.0575L17.1747 19.9105V20H15.1016ZM18.4276 9.81818L18.0646 11.1406L12.7152 11.1207L13.0781 9.81818H18.4276Z" fill="#00254A"/>
<path d="M25 15C25 20.52 20.52 25 15 25C9.48 25 5 20.52 5 15C5 9.48 9.48 5 15 5" stroke="#00254A" stroke-width="1.5" stroke-linecap="round" stroke-linejoin="round"/>
</svg>
