<svg width="30" height="30" viewBox="0 0 30 30" fill="none" xmlns="http://www.w3.org/2000/svg">
<path d="M5.31023 12.03L7.27023 14.36C7.57023 14.71 7.57023 15.29 7.27023 15.64L5.31023 17.97C5.04023 18.51 5.31023 19.17 5.89023 19.37L7.22023 19.81C7.54023 19.92 8.01023 19.81 8.25023 19.57L10.5302 17.3C10.6902 17.13 11.0102 17 11.2402 17L14.0902 17C14.5102 17 14.7102 17.31 14.5502 17.7L12.4302 22.61C12.1002 23.38 12.5102 24.01 13.3502 24.01L14.6402 24.01C15.3102 24.01 16.0802 23.51 16.3402 22.89L18.7502 17.3C18.8202 17.14 19.0302 17 19.2102 17L22.2102 17C23.1502 17 24.2602 16.31 24.6902 15.47C24.8402 15.17 24.8402 14.82 24.6902 14.52C24.2602 13.68 23.1402 12.99 22.2002 12.99L19.2002 12.99C19.0202 12.99 18.8102 12.85 18.7402 12.69L16.3302 7.11001C16.0802 6.49001 15.3102 5.99001 14.6402 5.99001L13.3502 5.99C12.5102 5.99 12.1002 6.62 12.4302 7.39L14.5502 12.3C14.7202 12.68 14.5102 13 14.0902 13L11.2402 13C11.0102 13 10.6902 12.87 10.5302 12.71L8.25023 10.44C8.01023 10.2 7.55023 10.09 7.22023 10.2L5.89023 10.64C5.31023 10.82 5.03023 11.48 5.31023 12.03Z" stroke="#14183E" stroke-width="1.5" stroke-linecap="round" stroke-linejoin="round"/>
</svg>
